
<svg version="1.1" id="Layer_1" xmlns="http://www.w3.org/2000/svg"  x="0px" y="0px"
	 width="242px" height="48px" viewBox="0 0 242 48" style="enable-background:new 0 0 242 48;" xml:space="preserve">


	  <defs>
<style>


.black {
    animation: blink1 3s linear infinite;
    transition: 2s;
}

@keyframes blink1 {
    0%   { fill: white;transition: 50s; }
    25%  { fill: lightgrey; transition: 50s;}
    50%  { fill: grey; transition: 50s;}
    50%  { fill: darkgrey;transition: 50s; }
    100% { fill: black; transition: 50s;}
}

.st1, .st2	{

    fill:#fff;stroke:#000000;stroke-width:0.5;stroke-linecap:round;stroke-miterlimit:5;
    stroke-dasharray: 800;
    stroke-dashoffset: 0;
    animation: dash 30s linear forwards;
    transition: 2s;
}


@keyframes dash {
    from    {
        stroke-dashoffset: 800;
    }
    to    {
        stroke-dashoffset: 0;
     fill: black;
    }
}





</style>



  </defs>

<g>
	<rect x="-2.234" y="-0.221" class="st0" width="90.333" height="47.887"/>
	<g>
		<g class="black">
			<path class="black1" d="M5.112,6.728c1.472-0.43,3.795-0.754,6.155-0.754c3.369,0,5.534,0.807,7.161,2.641
				c1.355,1.399,2.168,3.553,2.168,6.408c0,3.505-1.664,6.575-4.412,7.974v0.105c2.477,0.864,5.38,3.72,5.38,9.106
				c0,3.123-0.892,5.496-2.206,7.272c-1.819,2.316-4.762,3.395-9.02,3.395c-2.323,0-4.1-0.215-5.225-0.434V6.728z M8.481,21.598
				h3.057c3.561,0,5.651-2.588,5.651-6.088c0-4.255-2.323-5.926-5.73-5.926c-1.547,0-2.436,0.162-2.978,0.325V21.598z M8.481,38.994
				c0.659,0.162,1.626,0.219,2.824,0.219c3.486,0,6.697-1.781,6.697-7.057c0-4.956-3.057-7.005-6.735-7.005H8.481V38.994z"/>
			<path class="black1" d="M25.988,4.303h3.404v38.248h-3.404V4.303z"/>
			<path class="black1" d="M45.5,42.551l-0.271-3.285h-0.117c-1.046,2.048-3.057,3.877-5.73,3.877c-3.791,0-5.727-3.715-5.727-7.487
				c0-6.303,4.025-9.751,11.264-9.698v-0.535c0-2.158-0.425-6.035-4.258-6.035c-1.743,0-3.561,0.754-4.879,1.939l-0.772-3.123
				c1.547-1.399,3.791-2.316,6.152-2.316c5.73,0,7.123,5.439,7.123,10.663V36.3c0,2.263,0.079,4.474,0.309,6.25H45.5z
				 M44.996,29.247c-3.716-0.11-7.933,0.807-7.933,5.869c0,3.07,1.469,4.527,3.212,4.527c2.439,0,3.987-2.154,4.529-4.364
				c0.117-0.487,0.192-1.022,0.192-1.509V29.247z"/>
			<path class="black1" d="M67.149,41.582c-0.892,0.645-2.865,1.509-5.383,1.509c-5.651,0-9.326-5.334-9.326-13.308
				c0-8.027,3.946-13.843,10.063-13.843c2.011,0,3.791,0.702,4.721,1.347l-0.775,3.663c-0.81-0.645-2.09-1.237-3.946-1.237
				c-4.296,0-6.619,4.417-6.619,9.856c0,6.035,2.786,9.751,6.502,9.751c1.935,0,3.212-0.702,4.179-1.294L67.149,41.582z"/>
			<path class="black1" d="M74.511,28.436h0.079c0.463-0.912,1.122-2.044,1.664-2.961l5.497-8.996h4.1l-7.236,10.72l8.245,15.352
				h-4.141l-6.464-12.496l-1.743,2.693v9.803h-3.366V4.303h3.366V28.436z"/>
            </g>
            <g class="clover">
			<path class="st1" d="M115.864,41.367c-1.239,0.86-3.716,1.724-6.89,1.724c-7.356,0-12.89-6.465-12.89-18.37
				c0-11.365,5.534-19.071,13.625-19.071c3.253,0,5.304,0.969,6.193,1.619l-0.813,3.825c-1.276-0.864-3.095-1.509-5.263-1.509
				c-6.114,0-10.18,5.439-10.18,14.975c0,8.887,3.678,14.597,10.025,14.597c2.052,0,4.141-0.592,5.497-1.509L115.864,41.367z"/>
			<path class="st1" d="M119.977,4.303h3.404v38.248h-3.404V4.303z"/>
			<path class="st1" d="M146.07,29.3c0,9.641-4.8,13.843-9.329,13.843c-5.071,0-8.979-5.171-8.979-13.413
				c0-8.729,4.103-13.843,9.288-13.843C142.43,15.887,146.07,21.326,146.07,29.3z M131.207,29.568
				c0,5.711,2.361,10.023,5.689,10.023c3.253,0,5.689-4.259,5.689-10.128c0-4.417-1.585-10.023-5.61-10.023
				C132.947,19.44,131.207,24.611,131.207,29.568z"/>
			<path class="st1" d="M151.425,16.479l3.678,14.65c0.618,2.373,1.122,4.527,1.51,6.68h0.117c0.425-2.154,0.968-4.307,1.585-6.68
				l3.64-14.65h3.558l-7.353,26.072h-3.253l-7.12-26.072H151.425z"/>
			<path class="st1" d="M170.243,30.375c0.079,6.413,3.019,9.053,6.426,9.053c2.439,0,3.908-0.592,5.188-1.347l0.58,3.391
				c-1.201,0.754-3.253,1.619-6.231,1.619c-5.768,0-9.212-5.281-9.212-13.146s3.328-14.058,8.787-14.058
				c6.114,0,7.74,7.487,7.74,12.281c0,0.969-0.079,1.724-0.117,2.206H170.243z M180.231,26.984c0.038-3.018-0.892-7.702-4.721-7.702
				c-3.445,0-4.954,4.417-5.225,7.702H180.231z"/>
			<path class="st1" d="M187.751,24.611c0-3.07-0.041-5.706-0.158-8.132h2.981l0.117,5.119h0.154
				c0.851-3.505,2.903-5.711,5.188-5.711c0.388,0,0.656,0.053,0.968,0.162v4.47c-0.35-0.11-0.697-0.162-1.163-0.162
				c-2.398,0-4.103,2.531-4.567,6.088c-0.076,0.645-0.154,1.399-0.154,2.206v13.9h-3.366V24.611z"/>
		</g>
	</g>

	<path class="st2" d="M209.001,6.721c0,0-2.578,1.986-3.236,3.626c-0.087,0.217-0.207,0.535-0.207,0.535s-0.289,1.189-0.374,2.567
		c-0.065,1.048-0.012,2.206,0.374,3.032c0.284,0.534,0.618,0.944,0.451,0.725c1.439,1.418,3.002,2.301,4.724,2.494
		c0.08,0.042,0.166,0.072,0.256,0.089l3.512,0.671c0.119,0.023,0.243,0.043,0.363,0.059c5.138,0.698,5.316,0.29-0.112,1.586
		l-4.125,1.142c-1.501,0.416-2.814,1.288-3.734,2.481l-0.465,0.603c-1.446,1.874-1.759,4.321-0.827,6.465l0.092,0.213
		c0.599,1.379,1.67,2.529,3.043,3.268l0.431,0.232c2.106,1.135,4.682,1.175,6.827,0.108l0.156-0.078
		c1.311-0.652,2.372-1.676,3.034-2.926l0.744-1.405c0.164-0.31,0.302-0.632,0.414-0.962l1.245-3.697l0.66,7.514
		c0.205,1.012,0.656,1.965,1.316,2.785l1.198,1.487c0.5,0.462,0.992,0.916,1.492,1.378l1.829,1.254
		c0.282,0.193,0.578,0.367,0.887,0.518l2.296,1.129c1.392,0.741,3.258-0.074,0.977-1.371c-3.726-1.296-6.201-2.87-8.453-6.738
		c-0.462-0.07-1.165-9.219-0.292-9.562c0.289-0.114,0.474,7.261,1.361,8.797c0.03,0.171,0.116,0.329,0.246,0.451
		c0.759,1.21,1.611,2.224,2.764,2.605c0.22,0.207,4.012,0.367,5.285-0.293c0.435-0.226,2.161-1.035,2.85-1.572
		c0.779-0.607,1.681-1.548,2.474-2.658c0.585-0.82,1.111-1.733,1.484-2.673c0.354-0.891,0.569-1.807,0.568-2.69
		c-0.001-0.563-0.328-1.709-0.85-2.817c-0.504-1.069-1.188-2.101-1.936-2.537c-0.873-0.508-2.752-0.807-4.559-0.986
		c-2.072-0.205-4.051-0.251-4.315-0.273c-3.259-0.267-2.728-1.158,0.204-1.481c0.424-0.047,3.63-1.069,5.075-1.547
		c1.107-0.366,2.082-0.979,2.855-1.767c0.773-0.788,1.346-1.752,1.647-2.82v0c0.451-1.599,0.249-3.247-0.485-4.659
		c-0.582-1.12-1.499-2.092-2.689-2.773l-0.293-0.168c-1.157-0.662-2.463-0.984-3.765-0.968c-1.302,0.015-2.599,0.368-3.738,1.057v0
		c-1.777,1.074-3.036,2.764-3.504,4.704l-0.782,3.239c-0.027,0.111-0.086,0.223-0.093,0.336c-0.407,6.464-0.973,2.192-1.206-0.493
		c-0.194-2.239-0.88-4.506-2.357-6.396c-0.123-0.202-0.329-0.417-0.562-0.594c-1.631-1.562-3.635-2.146-5.923-1.998
		c-0.182-0.004-0.423,0.017-0.682,0.035c-1.115,0.137-2.208,0.635-3.277,1.501C209.179,6.56,209.001,6.721,209.001,6.721z"/>

</g>
</svg>
